<mxfile host="app.diagrams.net" modified="2022-01-12T04:06:12.095Z" agent="5.0 (Windows NT 10.0; Win64; x64) AppleWebKit/537.36 (KHTML, like Gecko) Chrome/97.0.4692.71 Safari/537.36 Edg/97.0.1072.55" etag="3EoDK1rnoWugqtE0wRPy" version="15.9.1" type="github">
  <diagram id="k7IDDtdH_RbNIxuvELw7" name="Page-1">
    <mxGraphModel dx="1038" dy="583" grid="1" gridSize="10" guides="1" tooltips="1" connect="1" arrows="1" fold="1" page="1" pageScale="1" pageWidth="827" pageHeight="1169" math="0" shadow="0">
      <root>
        <mxCell id="0" />
        <mxCell id="1" parent="0" />
        <mxCell id="gF1c1IEvJSJ9rqwgzEli-5" style="edgeStyle=orthogonalEdgeStyle;rounded=0;orthogonalLoop=1;jettySize=auto;html=1;entryX=0.5;entryY=1;entryDx=0;entryDy=0;fontSize=22;" edge="1" parent="1" source="gF1c1IEvJSJ9rqwgzEli-1" target="gF1c1IEvJSJ9rqwgzEli-2">
          <mxGeometry relative="1" as="geometry" />
        </mxCell>
        <mxCell id="gF1c1IEvJSJ9rqwgzEli-6" style="edgeStyle=orthogonalEdgeStyle;rounded=0;orthogonalLoop=1;jettySize=auto;html=1;entryX=0.5;entryY=1;entryDx=0;entryDy=0;fontSize=22;" edge="1" parent="1" source="gF1c1IEvJSJ9rqwgzEli-1" target="gF1c1IEvJSJ9rqwgzEli-3">
          <mxGeometry relative="1" as="geometry" />
        </mxCell>
        <mxCell id="gF1c1IEvJSJ9rqwgzEli-1" value="C++&amp;nbsp;implement" style="rounded=0;whiteSpace=wrap;html=1;fontSize=22;" vertex="1" parent="1">
          <mxGeometry x="270" y="230" width="160" height="60" as="geometry" />
        </mxCell>
        <mxCell id="gF1c1IEvJSJ9rqwgzEli-2" value="lua interface" style="rounded=0;whiteSpace=wrap;html=1;fontSize=22;" vertex="1" parent="1">
          <mxGeometry x="200" y="100" width="120" height="60" as="geometry" />
        </mxCell>
        <mxCell id="gF1c1IEvJSJ9rqwgzEli-3" value="python interface" style="rounded=0;whiteSpace=wrap;html=1;fontSize=22;" vertex="1" parent="1">
          <mxGeometry x="380" y="100" width="120" height="60" as="geometry" />
        </mxCell>
        <mxCell id="gF1c1IEvJSJ9rqwgzEli-4" value="" style="endArrow=none;dashed=1;html=1;rounded=0;fontSize=22;" edge="1" parent="1">
          <mxGeometry width="50" height="50" relative="1" as="geometry">
            <mxPoint x="160" y="210" as="sourcePoint" />
            <mxPoint x="560" y="210" as="targetPoint" />
          </mxGeometry>
        </mxCell>
      </root>
    </mxGraphModel>
  </diagram>
</mxfile>
